# xmcd
#
# Track frame offsets:
#	150
#	14545
#	28235
#	40777
#	52639
#	70602
#	80307
#	91347
#	101365
#	111397
#	123060
#	132037
#	140270
#	154595
#	171690
#	186452
#	203990
#	214850
#	227880
#	237225
#	254102
#	265675
#	280767
#	290220
#
# Disc length: 4021 seconds
#
# Revision: 0
# Processed by: cddbd v1.4b41PL2 Copyright (c) Steve Scherf et al.
# Submitted via: audiograbber 1.80
#
DISCID=5d0fb318
DTITLE=Rob Hoeke R and B group - 48 all time favourites - disc 2
DYEAR=1900
DGENRE=
TTITLE0=Astri's blues
TTITLE1=Schoolday blues
TTITLE2=Walkin' the rock
TTITLE3=Breakdown boogie
TTITLE4=Splash-down boogie
TTITLE5=Ramblin' around the milky way
TTITLE6=Power supply
TTITLE7=Full speed
TTITLE8=Milkman blues
TTITLE9=Harry lime theme
TTITLE10=Blues on the down beat
TTITLE11=Hersal boogie
TTITLE12=Calamity jane
TTITLE13=Robby's saloon
TTITLE14=Marsupilami
TTITLE15=A bone for rataplan
TTITLE16=San antonio rose
TTITLE17=Coyote will
TTITLE18=Red river valley
TTITLE19=Memphis tennessee
TTITLE20=Lawdy miss clawdy
TTITLE21=Blueberry hill
TTITLE22=I'm in love again
TTITLE23=Boogie loaded
EXTD=
EXTT0=
EXTT1=
EXTT2=
EXTT3=
EXTT4=
EXTT5=
EXTT6=
EXTT7=
EXTT8=
EXTT9=
EXTT10=
EXTT11=
EXTT12=
EXTT13=
EXTT14=
EXTT15=
EXTT16=
EXTT17=
EXTT18=
EXTT19=
EXTT20=
EXTT21=
EXTT22=
EXTT23=
PLAYORDER=
